<?xml version="1.0" encoding="UTF-8"?>
<svg width="288" height="288" id="SvgjsSvg1001" xmlns="http://www.w3.org/2000/svg" viewBox="0 0 288 288">
  <defs>
    <style>
      .cls-1 {
        fill: #fff;
      }

      .cls-2 {
        fill: #006efc;
      }
    </style>
  </defs>
  <rect id="SvgjsRect1011" class="cls-2" width="288" height="288" rx="40" ry="40"/>
  <g id="SvgjsG1008">
    <path class="cls-1" d="m221.75,187.25c15-26.88,15-59.62,0-86.51-.08-.87-.53-1.66-1.25-2.17-25.08-42.28-79.7-56.23-121.98-31.14-42.28,25.08-56.23,79.7-31.14,121.98,25.08,42.28,79.7,56.23,121.98,31.14,12.83-7.61,23.54-18.32,31.14-31.14.71-.5,1.17-1.3,1.25-2.17Zm-128.79,2.79h14.06c2.94,11.58,8.32,22.41,15.78,31.75-13.12-7.08-23.59-18.22-29.84-31.75Zm-31.79-42.98h15.33c.28,12.59,2.69,25.05,7.13,36.84h-12.28c-6.24-11.31-9.73-23.93-10.19-36.84Zm10.19-42.98h12.28c-4.44,11.79-6.85,24.24-7.13,36.84h-15.34c.46-12.91,3.95-25.53,10.19-36.84Zm123.63-6.14h-14.06c-2.94-11.58-8.32-22.41-15.78-31.75,13.12,7.08,23.59,18.22,29.84,31.75Zm31.79,42.98h-15.33c-.28-12.59-2.69-25.05-7.13-36.84h12.28c6.24,11.31,9.73,23.93,10.19,36.84Zm-21.47,0h-18.4c-.13-12.4-1.6-24.75-4.38-36.84h15.23c4.71,11.73,7.27,24.2,7.55,36.84Zm-64.41-36.84v36.84h-33.73c.16-12.42,1.74-24.77,4.68-36.84h29.05Zm-27.35-6.14c6.14-20.22,16.12-34.31,27.35-36.51v36.51h-27.35Zm27.35,49.12v36.84h-29.05c-2.95-12.06-4.52-24.42-4.68-36.84h33.73Zm0,42.98v36.51c-11.23-2.2-21.21-16.29-27.35-36.51h27.35Zm6.14-6.14v-36.84h33.73c-.16,12.42-1.74,24.77-4.68,36.84h-29.05Zm27.35,6.14c-6.14,20.22-16.13,34.31-27.35,36.51v-36.51h27.35Zm-27.35-49.12v-36.84h29.05c2.95,12.06,4.52,24.42,4.68,36.84h-33.73Zm0-42.98v-36.51c11.23,2.2,21.21,16.29,27.35,36.51h-27.35Zm-24.25-31.75c-7.46,9.34-12.84,20.16-15.78,31.75h-14.06c6.25-13.53,16.72-24.67,29.84-31.75Zm-17.38,37.89c-2.78,12.09-4.25,24.44-4.38,36.84h-18.4c.28-12.63,2.84-25.11,7.55-36.84h15.23Zm-22.77,42.98h18.4c.13,12.4,1.6,24.75,4.38,36.84h-15.23c-4.71-11.73-7.26-24.2-7.55-36.84Zm82.52,74.72c7.46-9.34,12.84-20.16,15.78-31.75h14.06c-6.25,13.53-16.72,24.67-29.84,31.75Zm17.38-37.89c2.78-12.09,4.25-24.44,4.38-36.84h18.4c-.28,12.63-2.84,25.11-7.55,36.84h-15.23Zm28.92-36.84h15.33c-.46,12.91-3.95,25.53-10.19,36.84h-12.28c4.44-11.79,6.86-24.24,7.14-36.84Zm1.4-49.12h-11.1c-4.69-10.49-11.49-19.9-19.95-27.66,12.52,6.45,23.2,15.97,31.05,27.66Zm-106.7-27.66c-8.47,7.77-15.26,17.18-19.95,27.66h-11.1c7.85-11.69,18.53-21.21,31.05-27.66h0Zm-31.05,119.76h11.1c4.7,10.49,11.49,19.9,19.95,27.66-12.52-6.45-23.2-15.97-31.05-27.66Zm106.7,27.66c8.47-7.76,15.26-17.18,19.95-27.66h11.1c-7.85,11.69-18.53,21.21-31.05,27.66Z"/>
  </g>
</svg>